<svg width="1636" height="416" viewBox="0 0 1636 416" fill="none" xmlns="http://www.w3.org/2000/svg">
<g clip-path="url(#clip0_788_1955)">
<path fill-rule="evenodd" clip-rule="evenodd" d="M332.752 46.8456C332.373 46.9452 331.583 47.2606 330.997 47.5466C329.628 48.2146 328.037 49.7661 327.339 51.1129C326.465 52.7983 326.447 52.9165 325.228 65.1992C322.882 88.8342 321.35 102.337 319.706 113.872C315.457 143.696 310.157 159.977 301.208 170.704C299.651 172.569 296.928 175.249 295.075 176.739C293.602 177.923 290.081 180.313 288.429 181.251C280.301 185.864 269.296 189.383 254.137 192.214C240.168 194.824 223.019 196.947 189.064 200.272C178.625 201.295 178.395 201.331 176.714 202.2C175.381 202.889 173.832 204.49 173.16 205.874C172.469 207.297 172.263 208.18 172.263 209.71C172.263 211.239 172.469 212.122 173.16 213.546C173.895 215.058 175.393 216.561 176.902 217.299C177.488 217.586 178.306 217.904 178.72 218.005C179.134 218.107 183.055 218.534 187.434 218.953C219.199 221.998 235.269 223.867 248.615 226.07C282.37 231.641 297.613 239.731 306.889 256.999C311.736 266.022 315.308 278.282 318.268 296.051C320.459 309.21 322.296 324.574 325.35 355.317C325.905 360.901 326.42 365.768 326.494 366.133C326.569 366.498 326.875 367.306 327.176 367.929C328.081 369.806 329.254 371.004 331.059 371.896C332.408 372.562 333.306 372.771 334.821 372.771C336.346 372.771 337.226 372.564 338.645 371.871C340.153 371.134 341.651 369.631 342.387 368.118C342.673 367.53 342.99 366.709 343.092 366.294C343.193 365.879 343.646 361.577 344.098 356.735C347.358 321.773 349.42 304.442 352.012 290.203C354.476 276.669 357.365 266.876 361.215 259.012C363.179 254.999 364.905 252.22 367.348 249.139C368.54 247.636 371.579 244.505 373.063 243.252C383.043 234.821 397.731 229.653 422.965 225.697C436.212 223.619 451.225 221.906 481.518 219.016C486.277 218.562 490.508 218.107 490.922 218.005C493.204 217.445 495.476 215.623 496.483 213.546C497.251 211.963 497.419 211.145 497.349 209.336C497.301 208.087 497.23 207.659 496.942 206.882C495.983 204.288 493.832 202.276 491.173 201.485C490.519 201.291 488.135 201.014 481.832 200.4C445.613 196.872 428.63 194.773 414.188 192.04C389.016 187.276 375.175 180.555 366.399 168.834C360.881 161.466 356.71 151.068 353.581 136.888C350.231 121.699 347.967 103.936 344.036 61.992C343.618 57.5303 343.193 53.5402 343.091 53.1252C342.531 50.8331 340.73 48.5748 338.645 47.5512C338.059 47.2633 337.243 46.9423 336.832 46.8379C335.888 46.5981 333.679 46.6022 332.752 46.8456Z" fill="black"/>
<path fill-rule="evenodd" clip-rule="evenodd" d="M106.993 0.123378C106.74 0.189785 106.214 0.400073 105.823 0.590741C104.91 1.03605 103.849 2.07039 103.384 2.96822C102.802 4.09186 102.79 4.17067 101.977 12.3591C100.413 28.1158 99.3916 37.1174 98.2957 44.8079C95.4626 64.6903 91.9295 75.5446 85.9633 82.6955C84.9257 83.9391 83.11 85.7258 81.8747 86.7188C80.8926 87.5082 78.5453 89.1019 77.4445 89.7268C72.0258 92.8026 64.6891 95.1482 54.5831 97.0358C45.2701 98.7754 33.8377 100.191 11.2008 102.408C4.24185 103.089 4.08814 103.113 2.96738 103.693C2.07867 104.153 1.04627 105.22 0.598492 106.142C0.137754 107.091 0 107.68 0 108.699C0 109.719 0.137754 110.308 0.598492 111.257C1.08807 112.265 2.08703 113.267 3.09277 113.759C3.48354 113.95 4.02895 114.162 4.3048 114.23C4.58064 114.298 7.19486 114.582 10.1142 114.862C31.2911 116.892 42.0039 118.138 50.9017 119.606C73.4052 123.321 83.5668 128.714 89.7508 140.226C92.982 146.241 95.3636 154.414 97.3367 166.26C98.7978 175.033 100.022 185.276 102.058 205.771C102.428 209.494 102.771 212.738 102.821 212.982C102.871 213.225 103.075 213.764 103.275 214.179C103.879 215.43 104.661 216.229 105.865 216.823C106.764 217.268 107.362 217.407 108.372 217.407C109.389 217.407 109.976 217.269 110.922 216.807C111.927 216.316 112.926 215.314 113.416 214.305C113.607 213.913 113.818 213.366 113.886 213.089C113.954 212.812 114.256 209.945 114.557 206.717C116.73 183.408 118.105 171.854 119.833 162.361C121.475 153.339 123.402 146.81 125.968 141.567C127.277 138.893 128.429 137.04 130.057 134.985C130.851 133.984 132.878 131.896 133.867 131.061C140.52 125.44 150.312 121.995 167.135 119.357C175.967 117.972 185.975 116.83 206.17 114.903C209.343 114.601 212.164 114.298 212.44 114.23C213.961 113.856 215.476 112.641 216.147 111.257C216.659 110.201 216.771 109.656 216.724 108.451C216.692 107.618 216.645 107.332 216.453 106.815C215.814 105.085 214.38 103.744 212.607 103.217C212.171 103.087 210.581 102.902 206.379 102.493C182.233 100.141 170.912 98.7417 161.284 96.9195C144.502 93.7436 135.275 89.263 129.424 81.4491C125.746 76.5369 122.965 69.605 120.879 60.1519C118.645 50.0257 117.136 38.1839 114.516 10.221C114.237 7.24652 113.953 4.58647 113.886 4.30978C113.512 2.78175 112.311 1.27619 110.922 0.59376C110.531 0.401834 109.987 0.187857 109.713 0.118263C109.084 -0.0416328 107.611 -0.0388661 106.993 0.123378Z" fill="black"/>
<path fill-rule="evenodd" clip-rule="evenodd" d="M186.173 271.841C186.004 271.885 185.654 272.025 185.394 272.152C184.788 272.448 184.082 273.136 183.772 273.733C183.385 274.48 183.377 274.533 182.836 279.979C181.796 290.458 181.117 296.445 180.388 301.56C178.504 314.784 176.154 322.003 172.186 326.759C171.496 327.586 170.288 328.775 169.467 329.435C168.813 329.96 167.252 331.02 166.52 331.436C162.916 333.481 158.037 335.041 151.315 336.297C145.121 337.454 137.517 338.395 122.462 339.87C117.833 340.323 117.731 340.339 116.986 340.724C116.395 341.03 115.708 341.74 115.41 342.353C115.104 342.984 115.012 343.376 115.012 344.054C115.012 344.732 115.104 345.124 115.41 345.755C115.736 346.426 116.4 347.092 117.069 347.419C117.329 347.546 117.692 347.687 117.875 347.732C118.059 347.778 119.797 347.967 121.739 348.153C135.824 349.503 142.949 350.331 148.867 351.308C163.834 353.779 170.592 357.366 174.705 365.022C176.854 369.023 178.438 374.459 179.75 382.338C180.722 388.172 181.536 394.985 182.891 408.616C183.137 411.092 183.365 413.25 183.398 413.412C183.431 413.574 183.567 413.932 183.7 414.208C184.102 415.04 184.622 415.571 185.422 415.967C186.02 416.262 186.418 416.355 187.09 416.355C187.766 416.355 188.156 416.263 188.786 415.956C189.454 415.629 190.119 414.963 190.445 414.292C190.571 414.031 190.712 413.667 190.757 413.483C190.802 413.299 191.003 411.392 191.203 409.245C192.649 393.743 193.563 386.058 194.712 379.744C195.805 373.744 197.086 369.401 198.793 365.914C199.664 364.135 200.429 362.903 201.512 361.537C202.041 360.871 203.388 359.482 204.046 358.927C208.471 355.188 214.984 352.897 226.173 351.143C232.047 350.222 238.703 349.462 252.135 348.18C254.245 347.979 256.121 347.778 256.305 347.732C257.316 347.484 258.324 346.676 258.77 345.755C259.111 345.053 259.185 344.691 259.154 343.889C259.133 343.335 259.101 343.145 258.974 342.801C258.549 341.65 257.595 340.758 256.416 340.408C256.126 340.321 255.069 340.198 252.274 339.926C236.215 338.362 228.685 337.431 222.281 336.219C211.12 334.107 204.983 331.127 201.091 325.93C198.645 322.663 196.795 318.053 195.408 311.765C193.923 305.031 192.919 297.155 191.176 278.557C190.99 276.578 190.802 274.809 190.757 274.625C190.509 273.609 189.71 272.608 188.786 272.154C188.526 272.026 188.164 271.884 187.982 271.837C187.563 271.731 186.584 271.733 186.173 271.841Z" fill="black"/>
<g clip-path="url(#clip1_788_1955)">
<path fill-rule="evenodd" clip-rule="evenodd" d="M799.462 336.424C799.462 332.255 795.95 328.674 791.794 328.674H783.36C773.596 328.674 768.137 316.259 760.023 296.803C751.909 277.346 684.152 114.869 672.537 86.9573C668.942 78.3167 657.166 78.3844 653.413 86.9573C641.848 113.378 567.201 296.036 566.962 296.62L566.962 296.621L566.954 296.639C562.872 306.486 559.366 314.174 555.623 321.053C552.288 326.333 548.867 328.674 544.137 328.674H535.664C531.509 328.674 528.289 332.264 528.033 336.366C528.033 336.453 528.033 336.792 528.035 336.878C528.033 336.963 528.033 337.05 528.033 337.135C528.289 341.75 531.587 345.082 535.968 345.082H602.394C606.559 345.082 609.821 341.369 609.821 337.135C609.821 332.926 606.433 328.71 602.293 328.674H591.164C585.263 328.674 577.919 323.336 582.21 313.619C582.883 312.095 583.727 310.019 584.709 307.601C584.915 307.095 585.127 306.572 585.346 306.037C586.065 304.5 586.812 302.886 587.575 301.188L599.7 271.897C600.837 269.085 603.561 267.245 606.586 267.245H684.766C687.711 267.245 690.38 268.992 691.567 271.697C691.567 271.697 705.58 303.824 709.871 313.54C714.163 323.257 706.708 328.674 700.807 328.674H689.678C685.538 328.71 682.15 332.67 682.15 336.878C682.15 341.113 685.397 345.082 689.562 345.082H791.539C795.92 345.082 799.462 341.393 799.462 336.939C799.462 336.854 799.461 336.769 799.458 336.685C799.461 336.598 799.462 336.511 799.462 336.424ZM672.038 249.746C679.778 249.746 681.357 245.999 678.864 239.34L651.522 175.595C648.895 169.471 640.191 169.619 637.773 175.829L612.948 239.574C610.332 247.583 611.91 249.746 619.87 249.746H672.038Z" fill="black"/>
<path fill-rule="evenodd" clip-rule="evenodd" d="M1361.43 170.353C1328.37 172.2 1301.13 188.682 1297.59 208.983C1295.77 219.378 1299.05 229.488 1305.99 234.846C1307.76 236.211 1309.75 237.294 1311.89 238.103C1322.07 241.951 1335.44 239.585 1342.31 231.814C1348.6 224.71 1349.76 215.793 1345.73 205.747C1344.22 201.998 1344.03 200.515 1344.81 198.879C1348.01 192.261 1366.11 189.267 1375.42 193.817C1384.11 198.066 1388.36 208.079 1388.94 225.703C1389.3 236.513 1388.23 241.842 1377.99 242.388C1355.31 243.597 1335.93 248.816 1320.7 255.708C1293.79 267.879 1280.55 285.446 1284.1 312.878C1284.1 312.878 1284.16 313.436 1284.22 313.791C1284.28 314.132 1284.39 314.66 1284.39 314.66C1287.82 331.029 1302.18 343.956 1321.91 349.512C1326.05 350.676 1330.4 351.494 1334.91 351.921C1337.28 352.145 1339.71 352.261 1342.17 352.261C1359.94 352.261 1375.88 349.794 1386.69 340.215C1386.94 339.987 1387.17 339.775 1387.39 339.579C1389.36 337.825 1390.2 337.239 1392 336.332C1392.89 335.884 1395.77 335.269 1398.43 336.143C1399.52 336.502 1400.36 337.339 1401.16 338.165C1412.46 349.823 1437.4 351.236 1451.6 343.27C1458.86 339.442 1466.21 333.378 1467.74 327.966C1469.76 320.803 1462.02 313.735 1455.58 316.871C1454.71 317.295 1454.02 317.77 1452.41 319.035C1446.91 323.361 1441.52 322.494 1439.95 317.032C1438.95 313.576 1438.88 310.585 1438.76 259.43C1438.72 244.749 1438.65 231.212 1438.6 226.74L1438.53 220.624L1438.52 220.557C1438.47 192.829 1409.24 170.363 1373.18 170.363L1373.02 170.363C1368.85 170.203 1364.46 170.183 1361.43 170.353ZM1358.09 327.023C1371.3 328.477 1382.72 319.939 1387.64 304.915L1387.72 304.702C1387.9 304.119 1388.07 303.55 1388.2 303.133C1388.87 300.672 1388.91 298.038 1388.98 282.86L1388.99 280.766L1389 279.567L1389.07 263.114L1387.09 263.132C1376.87 263.221 1367.69 264.644 1360.15 267.211C1355.95 268.64 1352.26 270.423 1349.18 272.527C1347.23 273.864 1345.52 275.33 1344.08 276.917C1337.64 284.037 1334.8 298.105 1337.34 310.317C1339.43 320.334 1346.09 325.703 1358.09 327.023Z" fill="black"/>
<path d="M1114.34 337.016C1114.34 341.471 1117.94 345.082 1122.39 345.082H1220.63C1225.08 345.082 1228.69 341.471 1228.69 337.016C1228.69 332.572 1225.1 328.455 1220.67 328.437H1220.63C1203.41 328.437 1198.63 320.206 1198.29 315.384L1198.32 237.465C1198.32 233.514 1199.12 229.558 1201.07 226.13C1209.66 211.104 1218.73 209.164 1224.06 210.642C1225.88 211.145 1227.25 212.534 1228.59 213.856C1233.44 218.615 1240.19 221.568 1247.67 221.568C1254.23 221.568 1260.25 219.286 1264.9 215.503C1269.7 211.59 1273.06 206.07 1274.05 199.805V199.802C1274.24 198.314 1274.33 196.746 1274.33 195.098C1274.33 195.02 1274.33 194.943 1274.33 194.867C1273.77 181.17 1262.05 170.234 1247.67 170.234C1241.36 170.234 1235.09 171.93 1228.78 175.44C1222.47 178.95 1216.63 183.514 1211.26 189.13C1206.48 194.128 1202.43 199.497 1199.13 205.236C1198.81 205.792 1197.94 205.568 1197.94 204.926V177.404C1197.94 173.493 1194.78 170.323 1190.88 170.323C1188.49 170.323 1186.11 170.581 1183.78 171.092L1132.19 182.398C1129.27 183.12 1127.22 186.629 1127.22 189.644C1127.22 194.395 1131.06 198.249 1135.81 198.249H1136.07C1140.86 198.249 1144.74 202.137 1144.74 206.934V315.238C1144.5 320.028 1139.65 328.684 1122.26 328.684C1117.82 328.684 1114.34 332.561 1114.34 337.016Z" fill="black"/>
<path d="M1508.09 94.383C1505.51 95.0329 1504.91 95.2103 1504.38 95.4746C1498.21 98.5891 1498.16 107.778 1504.29 110.993C1505.07 111.401 1505.6 111.585 1507.53 112.111C1514.73 114.074 1516.46 115.687 1517.33 121.263C1517.51 122.418 1517.61 186.716 1517.58 232.478V315.619C1517.55 317.676 1516.52 320.686 1513.6 323.325C1510.35 326.414 1504.67 328.674 1495.41 328.674C1490.99 328.674 1487.49 332.423 1487.49 336.878C1487.49 341.334 1491.07 345.082 1495.5 345.082H1496.07H1593.98C1598.41 345.082 1601.99 341.334 1601.99 336.878C1601.99 332.423 1598.49 328.674 1594.07 328.674C1576.34 328.674 1571.77 319.568 1571.75 314.879L1571.67 94.7703C1571.67 89.0199 1570.57 82.1783 1565.04 80.75C1564.3 80.559 1562.11 80.4307 1561.55 80.5458C1559.69 80.9301 1545.83 84.5554 1532.38 88.073C1522.32 90.7035 1512.5 93.2736 1508.09 94.383Z" fill="black"/>
<path d="M1005.77 143.214C1005.77 140.554 1006.48 138.025 1007.84 135.796C1009.4 133.217 1012.28 131.889 1015.19 131.118L1049.17 122.035C1054.02 120.497 1059.64 125.111 1059.39 130.495V139.143C1059.39 139.981 1059.41 140.891 1059.39 141.776L1059.35 154.476V170.15C1059.35 172.421 1061.21 174.272 1063.48 174.272H1086.08C1092 174.272 1096.45 177.092 1096.45 182.988C1096.45 188.372 1092.17 191.705 1086.54 191.705H1066.8C1062.66 191.705 1059.33 194.485 1059.33 198.644L1059.44 316.011C1059.44 321.448 1063.03 326.043 1067.96 327.544C1069.07 327.881 1070.24 328.061 1071.45 328.061C1074.87 328.061 1077.79 326.623 1080.14 324.332L1083.46 321.395C1085 320.113 1087.5 320.116 1088.59 320.36C1093.34 321.42 1097.24 326.697 1095.73 332.027C1094.67 335.765 1090.85 339.815 1086.18 343.224C1081.69 346.226 1076.61 348.583 1071.09 350.137C1066.5 351.429 1061.63 352.165 1056.57 352.252C1056.28 352.257 1055.98 352.26 1055.69 352.261C1055.65 352.261 1055.6 352.261 1055.56 352.261C1044.64 352.261 1034.53 349.238 1026.3 344.108C1013.68 336.24 1005.46 323.417 1005.46 308.933L1005.46 199.1C1005.46 194.737 1002.14 191.705 997.794 191.705H990.436C985.435 191.705 981.437 188.005 981.437 182.988C981.437 177.636 985.813 174.272 991.149 174.272H1001.63C1003.87 174.272 1005.79 172.565 1005.79 170.313V146.837L1005.77 143.214Z" fill="black"/>
<path fill-rule="evenodd" clip-rule="evenodd" d="M856.894 175.16C864.975 172.11 872.474 169.961 882.81 169.742C890.103 169.588 894.472 170.283 901.38 171.773C907.934 173.187 918.143 176.312 925.605 179.188C927.807 180.036 929.596 180.042 929.596 180.042C929.596 180.042 931.076 180.122 939.271 178.13C942.783 177.276 945.917 176.54 946.237 176.494C947.503 176.312 949.03 176.578 950.3 177.202C951.914 177.995 952.905 179.164 953.378 180.834L953.551 181.444L953.542 194.157C953.529 211.431 953.348 223.551 953.085 224.698C952.912 225.448 952.547 226.329 952.12 227.026C951.697 227.717 951.118 228.437 950.262 229.111C949.717 229.541 949.648 229.603 948.753 230.05C947.858 230.496 945.628 231.033 944.139 230.871C941.679 230.603 939.702 229.445 938.395 227.507C938.119 227.099 937.553 225.98 936.874 224.497C935.608 221.735 934.309 219.163 933.353 217.525C928.184 208.673 921.28 202.187 912.143 197.6C910.586 196.818 907.099 195.256 906.098 194.891C903.265 193.861 899.216 193.076 895.464 192.83C893.707 192.715 889.654 192.777 887.724 192.949C880.796 193.568 875.471 195.302 871.394 198.269C867.048 201.431 864.326 205.619 863.528 210.371C863.328 211.567 863.344 213.715 863.563 214.74C864.359 218.469 866.931 221.777 871.394 224.813C874.762 227.104 881.435 230.553 887.608 233.194C891.771 234.974 894.753 236.127 900.186 238.056C906.7 240.37 914.821 243.621 921.369 246.537C926.655 248.891 929.954 250.467 932.289 251.754C939.97 255.988 946.572 261.44 952.222 268.213C957.606 274.667 960.952 282.222 962.095 290.505C962.443 293.028 962.521 294.302 962.523 297.504C962.525 300.617 962.47 301.701 962.177 304.225C961.108 313.446 957.613 321.7 951.886 328.531C948.657 332.383 944.933 335.658 940.122 338.879C929.053 346.29 916.14 351.167 899.489 352.05C895.354 352.269 893.384 352.432 888.885 351.932C883.988 351.388 880.205 350.65 872.942 348.822C864.265 346.637 858.749 344.86 852.279 342.162C848.197 340.461 847.155 340.128 845.698 340.062C845.698 340.062 845.156 340.028 844.808 340.022C842.695 339.986 841.249 340.522 839.632 341.121C838.756 341.445 837.83 341.789 836.72 342.07C835.61 342.351 834.683 342.671 833.807 342.975C832.189 343.535 830.743 344.035 828.632 344.117C828.013 344.141 827.045 344.116 827.045 344.116C827.045 344.116 825.408 344.1 824.709 343.906C823.125 343.466 821.886 342.783 820.929 341.821C819.951 340.838 819.325 339.668 819.021 338.25C818.886 337.623 818.88 336.821 818.888 321.805C818.896 307.041 819.002 294.984 819.146 292.368C819.201 291.376 819.242 291.139 819.476 290.45C819.895 289.222 820.302 288.571 821.24 287.628C822.173 286.691 822.829 286.275 824.014 285.868C825.033 285.52 825.951 285.373 827.122 285.373C829.484 285.373 831.158 286.029 832.763 287.586C833.668 288.463 834.134 289.075 835.283 290.894C840.559 299.245 846.355 305.332 853.657 310.191C857.896 313.012 862.49 315.41 870.31 318.887C879.017 322.758 886.582 324.745 895.232 325.432C896.895 325.564 900.104 325.951 903.144 325.399C904.03 325.237 904.53 325.142 905.389 324.871C907.626 324.164 909.217 323.044 910.657 321.978C914.493 319.138 916.676 315.455 917.42 310.568C917.615 309.28 917.617 306.279 917.422 305.371C916.607 301.572 913.901 297.98 909.151 294.39C906.425 292.329 903.299 290.438 899.276 288.416C894.395 285.962 889.974 284.127 881.92 281.21C873.576 278.189 864.919 274.622 856.263 270.638C853.604 269.414 852.456 268.844 850.743 267.902C842.614 263.427 835.273 257.241 829.489 249.991C827.28 247.223 825.801 244.923 824.322 241.953C822.195 237.684 820.849 233.284 820.162 228.354C819.483 223.484 819.555 217.836 820.357 213.132C822.112 202.832 827.147 194.269 835.633 187.152C841.06 182.601 848.913 178.171 856.894 175.16Z" fill="black"/>
</g>
</g>
<defs>
<clipPath id="clip0_788_1955">
<rect width="1636" height="416" fill="white"/>
</clipPath>
<clipPath id="clip1_788_1955">
<rect width="1107.69" height="271.759" fill="white" transform="translate(528.033 80.5022)"/>
</clipPath>
</defs>
</svg>
