<?xml version="1.0" encoding="UTF-8" standalone="no"?>
<svg
   xmlns:dc="http://purl.org/dc/elements/1.1/"
   xmlns:cc="http://creativecommons.org/ns#"
   xmlns:rdf="http://www.w3.org/1999/02/22-rdf-syntax-ns#"
   xmlns:svg="http://www.w3.org/2000/svg"
   xmlns="http://www.w3.org/2000/svg"
   viewBox="0 0 3333.3333 3333.3333"
   height="3333.3333"
   width="3333.3333"
   xml:space="preserve"
   id="svg2"
   version="1.1"><metadata
     id="metadata8"><rdf:RDF><cc:Work
         rdf:about=""><dc:format>image/svg+xml</dc:format><dc:type
           rdf:resource="http://purl.org/dc/dcmitype/StillImage" /></cc:Work></rdf:RDF></metadata><defs
     id="defs6" /><g
     transform="matrix(1.3333333,0,0,-1.3333333,0,3333.3333)"
     id="g10"><g
       transform="scale(0.1)"
       id="g12"><g
         transform="scale(1.53374)"
         id="g14"><path
           id="path16"
           style="fill:#f5f4f4;fill-opacity:1;fill-rule:nonzero;stroke:none"
           d="M 16300,0 H 0 V 16300 H 16300 V 0" /></g><g
         transform="scale(1.07555)"
         id="g18"><path
           id="path20"
           style="fill:none;stroke:#231f20;stroke-width:37.19020081;stroke-linecap:butt;stroke-linejoin:miter;stroke-miterlimit:10;stroke-dasharray:none;stroke-opacity:1"
           d="m 16300,13327.9 c 0,1401.3 -2094.5,2537.3 -4678.1,2537.3 -2583.57,0 -4678.01,-1136 -4678.01,-2537.3 0,-1401.4 2094.44,-2537.3 4678.01,-2537.3 2583.6,0 4678.1,1135.9 4678.1,2537.3 z" /></g><g
         transform="scale(1.14677)"
         id="g22"><path
           id="path24"
           style="fill:none;stroke:#231f20;stroke-width:34.88050079;stroke-linecap:butt;stroke-linejoin:miter;stroke-miterlimit:10;stroke-dasharray:none;stroke-opacity:1"
           d="m 16300,12965.4 c 0,1621.7 -2417.6,2936.3 -5399.8,2936.3 -2982.3,0 -5399.88,-1314.6 -5399.88,-2936.3 0,-1621.7 2417.58,-2936.2 5399.88,-2936.2 2982.2,0 5399.8,1314.5 5399.8,2936.2 z" /></g><g
         transform="scale(1.22992)"
         id="g26"><path
           id="path28"
           style="fill:none;stroke:#231f20;stroke-width:32.5223999;stroke-linecap:butt;stroke-linejoin:miter;stroke-miterlimit:10;stroke-dasharray:none;stroke-opacity:1"
           d="m 16300,12303.6 c 0,1842.9 -2747.5,3336.9 -6136.7,3336.9 -3389.25,0 -6136.75,-1494 -6136.75,-3336.9 0,-1843 2747.5,-3337 6136.75,-3337 3389.2,0 6136.7,1494 6136.7,3337 z" /></g><g
         transform="scale(1.31926)"
         id="g30"><path
           id="path32"
           style="fill:none;stroke:#231f20;stroke-width:30.32010078;stroke-linecap:butt;stroke-linejoin:miter;stroke-miterlimit:10;stroke-dasharray:none;stroke-opacity:1"
           d="m 16300,11533.8 c 0,2049.7 -3055.7,3711.2 -6824.97,3711.2 -3769.35,0 -6825.02,-1661.5 -6825.02,-3711.2 0,-2049.6 3055.67,-3711.22 6825.02,-3711.22 3769.27,0 6824.97,1661.62 6824.97,3711.22 z" /></g><g
         transform="scale(1.01484)"
         id="g34"><path
           id="path36"
           style="fill:none;stroke:#231f20;stroke-width:39.4151001;stroke-linecap:butt;stroke-linejoin:miter;stroke-miterlimit:10;stroke-dasharray:none;stroke-opacity:1"
           d="m 14679.4,11760.3 c 983,399.5 1620.6,1042 1620.6,1766.5 0,1211.6 -1783.1,2193.8 -3982.8,2193.8 -2199.6,0 -3982.78,-982.2 -3982.78,-2193.8 0,-724.5 637.61,-1367 1620.64,-1766.5" /></g><path
         id="path38"
         style="fill:none;stroke:#231f20;stroke-width:40;stroke-linecap:butt;stroke-linejoin:miter;stroke-miterlimit:10;stroke-dasharray:none;stroke-opacity:1"
         d="m 15370.3,12240.3 c 200.4,231.5 312.6,490.9 312.6,764.9 0,976.2 -1425,1767.6 -3182.9,1767.6 -1757.9,0 -3182.93,-791.4 -3182.93,-1767.6 0,-274 112.27,-533.4 312.65,-764.9" /><path
         id="path40"
         style="fill:none;stroke:#231f20;stroke-width:40;stroke-linecap:butt;stroke-linejoin:miter;stroke-miterlimit:10;stroke-dasharray:none;stroke-opacity:1"
         d="m 14881.2,11930.1 c 18,66.1 27.4,133.7 27.4,202.6 0,738.7 -1078.4,1337.5 -2408.6,1337.5 -1330.2,0 -2408.6,-598.8 -2408.6,-1337.5 0,-68.9 9.4,-136.5 27.4,-202.6" /><path
         id="path42"
         style="fill:none;stroke:#231f20;stroke-width:40;stroke-linecap:butt;stroke-linejoin:miter;stroke-miterlimit:10;stroke-dasharray:none;stroke-opacity:1"
         d="m 14177.1,11761 c -288.3,354.8 -930.8,601.6 -1677.1,601.6 -746.3,0 -1388.8,-246.9 -1677.1,-601.6" /><path
         id="path44"
         style="fill:none;stroke:#231f20;stroke-width:40;stroke-linecap:butt;stroke-linejoin:miter;stroke-miterlimit:10;stroke-dasharray:none;stroke-opacity:1"
         d="m 7608.2,10320 519.37,615.1 c 0,0 926.81,1061 1911.03,1019" /><g
         transform="scale(1.23387)"
         id="g46"><path
           id="path48"
           style="fill:none;stroke:#231f20;stroke-width:32.41820145;stroke-linecap:butt;stroke-linejoin:miter;stroke-miterlimit:10;stroke-dasharray:none;stroke-opacity:1"
           d="m 5753.22,16300 c 251.35,-229.4 470.37,-431.6 623.46,-577.2 1448.51,-1377.1 2589.31,-3692.2 3152.17,-6292.9" /></g><path
         id="path50"
         style="fill:none;stroke:#231f20;stroke-width:40;stroke-linecap:butt;stroke-linejoin:miter;stroke-miterlimit:10;stroke-dasharray:none;stroke-opacity:1"
         d="m 3540.78,15706.9 c 1672.02,36.6 4939.85,-821.8 6875.52,-3856.8" /><path
         id="path52"
         style="fill:none;stroke:#231f20;stroke-width:40;stroke-linecap:butt;stroke-linejoin:miter;stroke-miterlimit:10;stroke-dasharray:none;stroke-opacity:1"
         d="m 2816.03,12068.3 c 655.99,302.1 1438.34,649.5 1793.98,787.2 1836.35,710.5 3873.25,396.1 5288.38,-831.9" /><g
         transform="scale(1.11875)"
         id="g54"><path
           id="path56"
           style="fill:none;stroke:#231f20;stroke-width:35.75419998;stroke-linecap:butt;stroke-linejoin:miter;stroke-miterlimit:10;stroke-dasharray:none;stroke-opacity:1"
           d="m 3615.17,16300 c 258.82,-49.4 528.43,-94.5 707.63,-133.1 1437.22,-309 4152.76,-2308.7 5570.93,-5692.9" /></g><g
         transform="scale(1.06698)"
         id="g58"><path
           id="path60"
           style="fill:none;stroke:#231f20;stroke-width:37.48889923;stroke-linecap:butt;stroke-linejoin:miter;stroke-miterlimit:10;stroke-dasharray:none;stroke-opacity:1"
           d="m 16300,9672.14 -486.8,576.46 c 0,0 -868.6,994.4 -1791,955.1" /></g><g
         transform="scale(1.23387)"
         id="g62"><path
           id="path64"
           style="fill:none;stroke:#231f20;stroke-width:32.41820145;stroke-linecap:butt;stroke-linejoin:miter;stroke-miterlimit:10;stroke-dasharray:none;stroke-opacity:1"
           d="m 14508.2,16300 c -251.4,-229.4 -470.4,-431.6 -623.5,-577.2 -1448.5,-1377.1 -2589.3,-3692.2 -3152.2,-6292.9" /></g><g
         transform="scale(1.31652)"
         id="g66"><path
           id="path68"
           style="fill:none;stroke:#231f20;stroke-width:30.38319969;stroke-linecap:butt;stroke-linejoin:miter;stroke-miterlimit:10;stroke-dasharray:none;stroke-opacity:1"
           d="m 16300,11930.7 c -1270,27.8 -3752.2,-624.3 -5222.5,-2929.59" /></g><g
         transform="scale(1.36098)"
         id="g70"><path
           id="path72"
           style="fill:none;stroke:#231f20;stroke-width:29.3906002;stroke-linecap:butt;stroke-linejoin:miter;stroke-miterlimit:10;stroke-dasharray:none;stroke-opacity:1"
           d="m 16300,8867.35 c -482,221.97 -1056.9,477.23 -1318.2,578.41 -1349.3,522.05 -2845.9,291.04 -3885.7,-611.25" /></g><g
         transform="scale(1.28561)"
         id="g74"><path
           id="path76"
           style="fill:none;stroke:#231f20;stroke-width:31.11359978;stroke-linecap:butt;stroke-linejoin:miter;stroke-miterlimit:10;stroke-dasharray:none;stroke-opacity:1"
           d="m 16300,14184.4 c -225.2,-43 -459.9,-82.3 -615.7,-115.8 -1250.7,-269 -3613.8,-2009.1 -4847.9,-4954.04" /></g><g
         transform="scale(1.23387)"
         id="g78"><path
           id="path80"
           style="fill:none;stroke:#231f20;stroke-width:32.41839981;stroke-linecap:butt;stroke-linejoin:miter;stroke-miterlimit:10;stroke-dasharray:none;stroke-opacity:1"
           d="M 10130.7,16300 V 9406.04" /></g><path
         id="path82"
         style="fill:none;stroke:#231f20;stroke-width:40;stroke-linecap:butt;stroke-linejoin:miter;stroke-miterlimit:10;stroke-dasharray:none;stroke-opacity:1"
         d="M 12500,10320 V 5087.9" /><path
         id="path84"
         style="fill:none;stroke:#231f20;stroke-width:40;stroke-linecap:butt;stroke-linejoin:miter;stroke-miterlimit:10;stroke-dasharray:none;stroke-opacity:1"
         d="M 12500,11605.8 V 10320" /><g
         transform="scale(1.38234)"
         id="g86"><path
           id="path88"
           style="fill:none;stroke:#231f20;stroke-width:28.93639946;stroke-linecap:butt;stroke-linejoin:miter;stroke-miterlimit:10;stroke-dasharray:none;stroke-opacity:1"
           d="M 9009.05,7465.58 H 1785.22 L 3196.2,14549.3 H 9042.61 14889.1 L 16300,7465.58 H 9076.18" /></g><path
         id="path90"
         style="fill:none;stroke:#231f20;stroke-width:40;stroke-linecap:butt;stroke-linejoin:miter;stroke-miterlimit:10;stroke-dasharray:none;stroke-opacity:1"
         d="m 11114.4,10320 c 367.2,-750.2 741.1,-1783.2 825.8,-3038.9 20.4,-303.3 9,-578.3 10.6,-862.5 V 5366.5" /><path
         id="path92"
         style="fill:none;stroke:#231f20;stroke-width:40;stroke-linecap:butt;stroke-linejoin:miter;stroke-miterlimit:10;stroke-dasharray:none;stroke-opacity:1"
         d="m 11645.8,10320 c 314.3,-946.5 558.6,-2062.3 600.5,-3318.2 6.7,-200.2 7.9,-396.1 4.5,-587.5 V 5118.1" /><path
         id="path94"
         style="fill:none;stroke:#231f20;stroke-width:40;stroke-linecap:butt;stroke-linejoin:miter;stroke-miterlimit:10;stroke-dasharray:none;stroke-opacity:1"
         d="m 13885.6,10320 c -367.2,-750.2 -741.1,-1783.2 -825.8,-3038.9 -20.4,-303.3 -9,-578.3 -10.6,-862.5 V 5366.5" /><path
         id="path96"
         style="fill:none;stroke:#231f20;stroke-width:40;stroke-linecap:butt;stroke-linejoin:miter;stroke-miterlimit:10;stroke-dasharray:none;stroke-opacity:1"
         d="m 13354.2,10320 c -314.3,-946.5 -558.6,-2062.3 -600.5,-3318.2 -6.7,-200.2 -7.9,-396.1 -4.5,-587.5 V 5118.1" /><path
         id="path98"
         style="fill:none;stroke:#231f20;stroke-width:40;stroke-linecap:butt;stroke-linejoin:miter;stroke-miterlimit:10;stroke-dasharray:none;stroke-opacity:1"
         d="m 13049.2,5366.5 c 0,-153.9 -245.9,-278.6 -549.2,-278.6 -303.3,0 -549.2,124.7 -549.2,278.6" /><path
         id="path100"
         style="fill:none;stroke:#231f20;stroke-width:40;stroke-linecap:butt;stroke-linejoin:miter;stroke-miterlimit:10;stroke-dasharray:none;stroke-opacity:1"
         d="m 13049.2,6641.7 c 0,-153.4 -245.9,-277.7 -549.2,-277.7 -303.3,0 -549.2,124.3 -549.2,277.7" /><path
         id="path102"
         style="fill:none;stroke:#231f20;stroke-width:40;stroke-linecap:butt;stroke-linejoin:miter;stroke-miterlimit:10;stroke-dasharray:none;stroke-opacity:1"
         d="m 13049.2,6003.8 c 0,-153.3 -245.9,-277.6 -549.2,-277.6 -303.3,0 -549.2,124.3 -549.2,277.6" /><path
         id="path104"
         style="fill:none;stroke:#231f20;stroke-width:40;stroke-linecap:butt;stroke-linejoin:miter;stroke-miterlimit:10;stroke-dasharray:none;stroke-opacity:1"
         d="m 13060.4,7292.5 c 0,-160.2 -250.9,-290.1 -560.4,-290.1 -309.5,0 -560.3,129.9 -560.3,290.1" /><path
         id="path106"
         style="fill:none;stroke:#231f20;stroke-width:40;stroke-linecap:butt;stroke-linejoin:miter;stroke-miterlimit:10;stroke-dasharray:none;stroke-opacity:1"
         d="m 13132.2,7937.7 c -42.2,-168.3 -309.2,-298 -632.2,-298 -322.1,0 -588.5,129 -631.8,296.6" /><path
         id="path108"
         style="fill:none;stroke:#231f20;stroke-width:40;stroke-linecap:butt;stroke-linejoin:miter;stroke-miterlimit:10;stroke-dasharray:none;stroke-opacity:1"
         d="m 13276.3,8657.2 c -63.9,-196.5 -387.1,-346 -776.3,-346 -389.2,0 -712.4,149.5 -776.3,346" /><path
         id="path110"
         style="fill:none;stroke:#231f20;stroke-width:40;stroke-linecap:butt;stroke-linejoin:miter;stroke-miterlimit:10;stroke-dasharray:none;stroke-opacity:1"
         d="m 13497.2,9394 c -98.5,-257 -507.6,-449.7 -997.2,-449.7 -489.6,0 -898.7,192.7 -997.2,449.7" /><path
         id="path112"
         style="fill:none;stroke:#231f20;stroke-width:40;stroke-linecap:butt;stroke-linejoin:miter;stroke-miterlimit:10;stroke-dasharray:none;stroke-opacity:1"
         d="m 13807.3,10155.8 c -206.6,-290.2 -714,-495.4 -1307.3,-495.4 -593.3,0 -1100.7,205.2 -1307.3,495.4" /></g></g></svg>